<svg width="306" height="306" viewBox="0 0 306 306" fill="none" xmlns="http://www.w3.org/2000/svg">
<path d="M100.3 178.973L95.6608 200.974L61.3255 178.433L44.625 159.98V143.392L83.5894 125.734L98.4739 124.187L100.3 178.973Z" fill="#1C4B7E"/>
<path d="M265.45 166.127V182.98L251.667 196.898L216.944 208.667L186.188 210.542L185.736 210.499L202.101 187.534L203.686 151.424L183.27 131.626L175.523 128.258L166.622 124.381L176.646 125.196L221.982 138.31L249.82 151.689L265.45 166.127Z" fill="#1C4B7E"/>
<path d="M265.448 166.126L249.818 151.688L221.98 138.309L176.644 125.196L166.62 124.38H166.609L162.232 124.02L127.33 121.181L109.244 123.066L98.4739 124.189L83.5894 125.736L44.625 143.394L52.2457 131.604L92.3438 114.762L102.4 114.349L138.205 112.887L184.338 117.982L212.26 126.551L227.019 131.085L254.856 149.008L265.448 166.126Z" fill="#255B8F"/>
<path d="M167.543 135.81L162.231 124.02L127.34 121.181L109.254 123.067L107.102 178.795L111.7 184.865L124.6 175.967L134.32 175.607L155.839 186.178L170.02 178.085L167.543 135.81ZM124.59 164.23C124.59 168.022 121.546 171.094 117.788 171.094C114.03 171.094 110.986 168.022 110.986 164.23V156.561C110.986 152.769 114.03 149.697 117.788 149.697C119.667 149.697 121.367 150.47 122.595 151.709C123.823 152.949 124.579 154.665 124.579 156.561V164.23H124.59ZM160.804 164.23C160.804 168.022 157.76 171.094 154.002 171.094C150.244 171.094 147.2 168.022 147.2 164.23V156.561C147.2 152.769 150.244 149.697 154.002 149.697C155.881 149.697 157.581 150.47 158.809 151.709C160.038 152.949 160.804 154.665 160.804 156.561V164.23Z" fill="#FFE97F"/>
<path d="M111.685 184.864L155.825 186.177L170.006 178.085L167.539 135.809L162.228 124.019L166.605 124.379H166.615L175.517 128.256L181.143 178.974L165.503 208.359L146.209 244.607L140.846 261.375L111.685 237.287L94.7223 205.456L95.6565 200.975L100.296 178.974L98.4697 124.189L109.239 123.066L107.098 178.794L111.685 184.864Z" fill="white"/>
<path d="M203.685 151.422L202.1 187.532L185.735 210.497L180.361 218.029L171.344 224.713L140.851 261.374L146.215 244.606L165.508 208.357L181.148 178.973L175.522 128.255L183.269 131.624L203.685 151.422Z" fill="#BFC6CD"/>
<path d="M124.594 156.558V164.227C124.594 168.019 121.55 171.091 117.792 171.091C114.034 171.091 110.99 168.019 110.99 164.227V156.558C110.99 152.766 114.034 149.694 117.792 149.694C119.671 149.694 121.371 150.467 122.599 151.707C123.838 152.946 124.594 154.662 124.594 156.558Z" fill="#151D26"/>
<path d="M160.802 156.558V164.227C160.802 168.019 157.758 171.091 154 171.091C150.242 171.091 147.198 168.019 147.198 164.227V156.558C147.198 152.766 150.242 149.694 154 149.694C155.879 149.694 157.579 150.467 158.807 151.707C160.035 152.946 160.802 154.662 160.802 156.558Z" fill="#151D26"/>
<path d="M208.459 61.2574L184.065 94.4338L184.337 117.981L138.204 112.886L102.399 114.348L117.787 76.7757L160.803 43.8747L194.666 38.25L229.138 47.614L230.985 51.6286L208.459 61.2574Z" fill="#255B8F"/>
<path d="M206.34 86.1395L212.26 126.551L184.339 117.981L184.066 94.4336L208.46 61.2573L230.987 51.6284L212.166 66.0769L206.34 86.1395Z" fill="#1C4B7E"/>
<path opacity="0.7" d="M98.4732 124.19L98.7147 131.562L126.867 128.257L160.09 127.876L178.648 131.562L189.166 137.346L183.267 131.626L166.619 124.38L127.329 121.181L98.4732 124.19Z" fill="#848589"/>
<path d="M194.666 38.25L164.509 45.9933L131.108 76.4898L124.589 113.448L102.399 114.348L117.787 76.7757L160.803 43.8747L194.666 38.25Z" fill="#4F99CB"/>
<path d="M44.625 143.394L83.5894 125.736L110.986 117.982H160.804C160.804 117.982 186.385 118.205 184.328 117.982C182.281 117.76 138.205 112.898 138.205 112.898L92.3438 114.773L52.2457 131.615L44.625 143.394Z" fill="#4F99CB"/>
<path opacity="0.5" d="M98.4739 124.187L83.5894 125.734L44.625 143.392V159.98L61.3255 178.433L95.6608 200.974L75.1709 169.726L75.9686 153.678L99.0512 141.591L98.4739 124.187Z" fill="#1E4777"/>
<path opacity="0.5" d="M166.622 124.381L176.646 125.196L221.982 138.31L249.82 151.689L222.171 149.697L203.686 151.424L183.27 131.626L166.622 124.381Z" fill="#1E4777"/>
<path d="M110.99 156.559L117.792 160.394L110.99 164.228V156.559Z" fill="white"/>
<path d="M147.198 156.559L154 160.394L147.198 164.228V156.559Z" fill="white"/>
<path d="M141.725 195.658C141.62 196.484 141.463 197.321 141.253 198.158C138.849 199.938 136.088 201.283 133.118 202.088L127.05 201.76C123.838 200.817 120.91 199.238 118.432 197.141C118.863 196.241 119.304 195.34 119.755 194.44C121.382 194.366 122.904 194.059 124.279 193.593C125.927 194.429 127.859 195.351 129.727 195.648C131.144 195.658 133.59 195.457 134.976 195.139C135.836 194.98 136.697 194.768 137.537 194.482C139.132 195.203 139.762 195.436 141.725 195.658Z" fill="#FFE97F"/>
<path d="M102.601 191.315L105.477 198.38L110.809 203.221L121.369 199.863L125.368 190.934L134.49 191.463L145.05 203.221L148.64 207.469L155.715 206.78C155.715 206.78 165.456 202.003 165.456 200.986C165.456 199.969 167.094 193.052 167.094 193.052L163.346 190.436L121.558 181.697L102.601 191.315Z" fill="#BFC6CD"/>
<path d="M122.563 173.836L129.155 173.264L130.971 174.599L134.708 174.451L132.756 175.605L126.961 175.806L122.563 173.836Z" fill="#BFC6CD"/>
<path d="M137.669 172.798L145.721 176.262L167.103 193.051L154.003 186.176L137.669 172.798Z" fill="#BFC6CD"/>
<path d="M109.046 184.863L102.601 191.324L105.823 197.394L109.046 199.915L119.522 194.809L124.14 189.545H134.91L138.448 193.994L146.257 202.733L155.211 201.695L162.59 195.625C162.59 195.625 163.514 191.176 163.357 190.435C163.199 189.693 155.295 186.176 155.295 186.176L137.671 172.798L132.748 175.605L126.954 175.806L122.566 173.836L109.046 184.863Z" fill="white"/>
<path d="M127.052 201.758L135.313 202.574L140.152 201.493L142.482 200.349L140.803 198.485L137.507 200.275L133.119 202.087L127.052 201.758Z" fill="#8EACAF"/>
</svg>
